<svg width="20" height="20" viewBox="0 0 20 20" fill="none" xmlns="http://www.w3.org/2000/svg">
<circle cx="10" cy="10" r="9.5" stroke="#064D49"/>
<path fill-rule="evenodd" clip-rule="evenodd" d="M10.4322 12.4321C10.3195 12.5448 10.1667 12.6081 10.0074 12.6081C9.84805 12.6081 9.69525 12.5448 9.58257 12.4321L6.18344 9.03306C6.12605 8.97763 6.08027 8.91133 6.04878 8.83802C6.01729 8.76471 6.00072 8.68587 6.00002 8.60609C5.99933 8.5263 6.01453 8.44718 6.04474 8.37334C6.07496 8.29949 6.11957 8.23241 6.17599 8.17599C6.23241 8.11957 6.2995 8.07496 6.37334 8.04474C6.44719 8.01453 6.52631 7.99933 6.60609 8.00002C6.68588 8.00072 6.76472 8.01729 6.83803 8.04878C6.91134 8.08027 6.97764 8.12605 7.03307 8.18344L10.0074 11.1577L12.9817 8.18344C13.095 8.07398 13.2468 8.01342 13.4043 8.01479C13.5619 8.01616 13.7126 8.07935 13.824 8.19076C13.9354 8.30216 13.9986 8.45287 14 8.61041C14.0013 8.76795 13.9408 8.91973 13.8313 9.03306L10.4322 12.4321Z" fill="#064D49"/>
</svg>
