<svg width="32" height="32" viewBox="0 0 32 32" fill="none" xmlns="http://www.w3.org/2000/svg">
<g clip-path="url(#clip0_16_7259)">
<path fill-rule="evenodd" clip-rule="evenodd" d="M16 32C24.8366 32 32 24.8366 32 16C32 7.16344 24.8366 0 16 0C7.16344 0 0 7.16344 0 16C0 24.8366 7.16344 32 16 32ZM26.0918 23.9385C23.7118 15.8137 16.5644 9.74944 7.91342 9.03454C9.35026 8.51937 10.8975 8.23889 12.5098 8.23889C20.0809 8.23889 26.2184 14.4238 26.2184 22.0532C26.2184 22.6927 26.1753 23.3221 26.0918 23.9385ZM24.8853 24.0849C20.1086 17.1139 11.4405 13.5993 3 15.6398C4.20562 14.6987 5.58883 13.9457 7.12064 13.4389C14.3138 11.0586 22.0599 15.0052 24.4219 22.2539C24.6199 22.8615 24.7738 23.473 24.8853 24.0849Z" fill="#064D49"/>
</g>
<defs>
<clipPath id="clip0_16_7259">
<rect width="32" height="32" rx="16" fill="white"/>
</clipPath>
</defs>
</svg>
