<svg width="18" height="11" viewBox="0 0 18 11" fill="none" xmlns="http://www.w3.org/2000/svg">
<path d="M16.7647 2.26471H0.882353C0.648338 2.26471 0.423908 2.17174 0.258435 2.00627C0.0929619 1.8408 0 1.61637 0 1.38235C0 1.14834 0.0929619 0.923908 0.258435 0.758435C0.423908 0.592962 0.648338 0.5 0.882353 0.5H16.7647C16.9987 0.5 17.2231 0.592962 17.3886 0.758435C17.5541 0.923908 17.6471 1.14834 17.6471 1.38235C17.6471 1.61637 17.5541 1.8408 17.3886 2.00627C17.2231 2.17174 16.9987 2.26471 16.7647 2.26471ZM13.8235 6.38235H3.82353C3.58951 6.38235 3.36508 6.28939 3.19961 6.12392C3.03414 5.95844 2.94118 5.73401 2.94118 5.5C2.94118 5.26599 3.03414 5.04156 3.19961 4.87608C3.36508 4.71061 3.58951 4.61765 3.82353 4.61765H13.8235C14.0575 4.61765 14.282 4.71061 14.4474 4.87608C14.6129 5.04156 14.7059 5.26599 14.7059 5.5C14.7059 5.73401 14.6129 5.95844 14.4474 6.12392C14.282 6.28939 14.0575 6.38235 13.8235 6.38235ZM10.2941 10.5H7.35294C7.11893 10.5 6.8945 10.407 6.72902 10.2416C6.56355 10.0761 6.47059 9.85166 6.47059 9.61765C6.47059 9.38363 6.56355 9.1592 6.72902 8.99373C6.8945 8.82826 7.11893 8.73529 7.35294 8.73529H10.2941C10.5281 8.73529 10.7526 8.82826 10.918 8.99373C11.0835 9.1592 11.1765 9.38363 11.1765 9.61765C11.1765 9.85166 11.0835 10.0761 10.918 10.2416C10.7526 10.407 10.5281 10.5 10.2941 10.5Z" fill="#FFF3DC"/>
</svg>
