<svg width="120" height="40" viewBox="0 0 120 40" fill="none" xmlns="http://www.w3.org/2000/svg">
<g id="Vector">
<path d="M9.82684 6.06907C27.1288 7.49887 41.4235 19.6274 46.1837 35.877C46.3506 34.6442 46.4369 33.3854 46.4369 32.1064C46.4369 16.8475 34.1617 4.47777 19.0196 4.47777C15.7951 4.47777 12.7005 5.03872 9.82684 6.06907Z" fill="#FFF3DC"/>
<path d="M0 19.2797C16.881 15.1986 34.2172 22.2277 43.7706 36.1697C43.5475 34.9459 43.2398 33.7229 42.8438 32.5077C38.1197 18.0104 22.6276 10.1172 8.24128 14.8777C5.17767 15.8915 2.41125 17.3973 0 19.2797Z" fill="#FFF3DC"/>
<path d="M61.1611 16.1118C59.8188 16.1118 58.6664 15.88 57.7038 15.4166C56.7411 14.9395 55.9547 14.3193 55.3446 13.556C54.7345 12.779 54.2803 11.9475 53.982 11.0615C53.6973 10.1619 53.5549 9.28949 53.5549 8.44437V7.99455C53.5549 7.06764 53.7041 6.15437 54.0024 5.25473C54.3006 4.34146 54.7548 3.51678 55.365 2.78071C55.9886 2.04464 56.7682 1.45851 57.7038 1.02232C58.6528 0.5725 59.7714 0.34759 61.0594 0.34759C62.4017 0.34759 63.588 0.599762 64.6184 1.10411C65.6489 1.60845 66.4691 2.31044 67.0793 3.21009C67.7029 4.0961 68.069 5.13887 68.1775 6.33839H64.8218C64.7269 5.73863 64.51 5.22747 64.171 4.80491C63.8321 4.38235 63.3914 4.05521 62.8491 3.82348C62.3203 3.59175 61.7238 3.47589 61.0594 3.47589C60.3951 3.47589 59.8053 3.59175 59.2901 3.82348C58.7749 4.05521 58.341 4.38235 57.9885 4.80491C57.6495 5.22747 57.3851 5.73181 57.1953 6.31794C57.0191 6.89044 56.9309 7.5311 56.9309 8.23991C56.9309 8.93508 57.0191 9.57574 57.1953 10.1619C57.3851 10.7344 57.6563 11.2387 58.0088 11.6749C58.3749 12.0975 58.8223 12.4246 59.3511 12.6563C59.8799 12.8744 60.4832 12.9835 61.1611 12.9835C62.1915 12.9835 63.0593 12.7313 63.7643 12.227C64.4829 11.7226 64.9167 11.0274 65.0659 10.1414H68.4012C68.2792 11.2319 67.9131 12.2338 67.303 13.147C66.7064 14.0467 65.8861 14.7691 64.8422 15.3144C63.8117 15.846 62.5847 16.1118 61.1611 16.1118Z" fill="#FFF3DC"/>
<path d="M70.4309 15.7233V4.51866H73.0138V9.32357H72.9528C72.9528 7.74238 73.2849 6.52241 73.9493 5.66366C74.6272 4.80491 75.6034 4.37553 76.8779 4.37553H77.305V7.19714H76.4915C75.5966 7.19714 74.9052 7.4425 74.4171 7.93321C73.929 8.41029 73.6849 9.10547 73.6849 10.0187V15.7233H70.4309Z" fill="#FFF3DC"/>
<path d="M84.036 16.1118C83.0869 16.1118 82.2463 15.9482 81.5142 15.6211C80.7956 15.2939 80.1922 14.8577 79.7041 14.3125C79.2296 13.7536 78.8635 13.1334 78.6059 12.4519C78.3619 11.7567 78.2398 11.0479 78.2398 10.3254V9.91651C78.2398 9.16681 78.3619 8.45118 78.6059 7.76964C78.8635 7.07446 79.2296 6.45425 79.7041 5.90901C80.1787 5.36378 80.7684 4.9344 81.4735 4.62089C82.1921 4.29375 83.0056 4.13018 83.914 4.13018C85.1071 4.13018 86.1104 4.40279 86.9239 4.94803C87.7509 5.47964 88.3814 6.18163 88.8152 7.05401C89.2491 7.91276 89.466 8.8533 89.466 9.87562V10.9797H79.6024V9.1191H87.4933L86.4358 9.97785C86.4358 9.30993 86.3409 8.73743 86.1511 8.26035C85.9612 7.78327 85.6765 7.42205 85.2969 7.17669C84.9308 6.9177 84.4698 6.78821 83.914 6.78821C83.3445 6.78821 82.8632 6.9177 82.47 7.17669C82.0768 7.43568 81.7785 7.81735 81.5752 8.32169C81.3718 8.8124 81.2701 9.41898 81.2701 10.1414C81.2701 10.8093 81.365 11.3955 81.5548 11.8998C81.7446 12.3905 82.0429 12.7722 82.4497 13.0448C82.8564 13.3174 83.3852 13.4537 84.036 13.4537C84.6325 13.4537 85.1206 13.3379 85.5003 13.1062C85.8799 12.8744 86.1375 12.5882 86.2731 12.2474H89.2627C89.1 12.9971 88.7814 13.665 88.3068 14.2512C87.8323 14.8373 87.2357 15.2939 86.5171 15.6211C85.7985 15.9482 84.9715 16.1118 84.036 16.1118Z" fill="#FFF3DC"/>
<path d="M96.2185 16.0913C95.4321 16.0913 94.7136 15.9482 94.0628 15.662C93.4255 15.3757 92.8696 14.9804 92.3951 14.4761C91.9206 13.9581 91.5545 13.3515 91.2969 12.6563C91.0528 11.9612 90.9308 11.2115 90.9308 10.4072V9.93696C90.9308 9.13273 91.0461 8.38303 91.2765 7.68785C91.5206 6.99267 91.8663 6.3861 92.3137 5.86812C92.7747 5.33651 93.3238 4.92759 93.9611 4.64134C94.5983 4.34146 95.3101 4.19152 96.0965 4.19152C96.9913 4.19152 97.7641 4.38916 98.4149 4.78446C99.0657 5.16613 99.5742 5.73863 99.9402 6.50196C100.306 7.25166 100.51 8.17857 100.55 9.28267L99.6962 8.48526V0.797411H102.971V15.7233H100.388V11.082H100.835C100.794 12.1452 100.571 13.0516 100.164 13.8013C99.7708 14.551 99.2352 15.1235 98.5573 15.5188C97.8794 15.9005 97.0998 16.0913 96.2185 16.0913ZM97.032 13.3515C97.5337 13.3515 97.9879 13.2425 98.3946 13.0244C98.8149 12.7926 99.1471 12.4587 99.3911 12.0225C99.6487 11.5863 99.7775 11.0615 99.7775 10.4481V9.6916C99.7775 9.09184 99.6487 8.58749 99.3911 8.17857C99.1335 7.76964 98.7946 7.45613 98.3743 7.23803C97.954 7.01994 97.4998 6.91089 97.0117 6.91089C96.4693 6.91089 95.9812 7.05401 95.5474 7.34026C95.1271 7.61288 94.7949 7.99455 94.5509 8.48526C94.3068 8.96235 94.1848 9.52121 94.1848 10.1619C94.1848 10.8162 94.3068 11.3818 94.5509 11.8589C94.7949 12.336 95.1339 12.704 95.5677 12.963C96.0016 13.222 96.4897 13.3515 97.032 13.3515Z" fill="#FFF3DC"/>
<path d="M106.451 15.7233V4.51866H109.705V15.7233H106.451ZM104.966 6.93133V4.51866H109.705V6.93133H104.966ZM107.712 3.41455C107.102 3.41455 106.647 3.2578 106.349 2.94428C106.064 2.61714 105.922 2.20821 105.922 1.7175C105.922 1.21315 106.064 0.804225 106.349 0.490714C106.647 0.163571 107.102 0 107.712 0C108.322 0 108.769 0.163571 109.054 0.490714C109.352 0.804225 109.501 1.21315 109.501 1.7175C109.501 2.20821 109.352 2.61714 109.054 2.94428C108.769 3.2578 108.322 3.41455 107.712 3.41455Z" fill="#FFF3DC"/>
<path d="M117.778 15.8664C116.653 15.8664 115.745 15.7301 115.053 15.4575C114.362 15.1712 113.853 14.701 113.528 14.0467C113.216 13.3788 113.06 12.4791 113.06 11.3478V1.49259H116.09V11.4704C116.09 12.002 116.226 12.411 116.497 12.6972C116.782 12.9698 117.182 13.1062 117.697 13.1062H119.344V15.8664H117.778ZM111.372 6.91089V4.51866H119.344V6.91089H111.372Z" fill="#FFF3DC"/>
<path d="M55.8734 35.8903V34.868H60.2663C61.3645 34.868 62.3135 34.6908 63.1135 34.3363C63.927 33.9819 64.5981 33.498 65.1269 32.8846C65.6556 32.2713 66.0488 31.5761 66.3064 30.7991C66.5776 30.0085 66.7132 29.1907 66.7132 28.3455C66.7132 27.4595 66.5776 26.628 66.3064 25.8511C66.0488 25.0741 65.6489 24.3858 65.1065 23.786C64.5642 23.1862 63.8931 22.716 63.0931 22.3752C62.2932 22.0344 61.3509 21.864 60.2663 21.864H55.8734V20.8417H60.1442C61.4594 20.8417 62.5983 21.053 63.5609 21.4755C64.5235 21.8845 65.3167 22.4365 65.9404 23.1317C66.5776 23.8269 67.0521 24.6107 67.364 25.483C67.6758 26.3554 67.8317 27.2551 67.8317 28.182V28.5091C67.8317 29.3951 67.6826 30.2811 67.3843 31.1672C67.086 32.0395 66.6183 32.8301 65.981 33.5389C65.3574 34.2477 64.5642 34.8202 63.6016 35.2564C62.6389 35.679 61.4865 35.8903 60.1442 35.8903H55.8734ZM55.1616 35.8903V20.8417H56.2598V35.8903H55.1616Z" fill="#FFF3DC"/>
<path d="M77.5693 35.8289V32.6188H77.366V28.6727C77.366 27.8139 77.1423 27.1528 76.6948 26.6894C76.2474 26.2123 75.5085 25.9738 74.4781 25.9738C74.112 25.9738 73.7392 25.9874 73.3595 26.0147C72.9799 26.0283 72.6206 26.0487 72.2816 26.076C71.9427 26.0896 71.6376 26.1169 71.3665 26.1578V25.1764C71.6376 25.1355 71.9224 25.1014 72.2206 25.0741C72.5325 25.0469 72.8443 25.0264 73.1561 25.0128C73.468 24.9991 73.7663 24.9923 74.051 24.9923C75.1221 24.9923 75.9763 25.1355 76.6135 25.4217C77.2507 25.6943 77.7117 26.1169 77.9964 26.6894C78.2812 27.2483 78.4235 27.9639 78.4235 28.8363V35.8289H77.5693ZM73.8476 36.1152C73.129 36.1152 72.485 35.9857 71.9156 35.7267C71.3461 35.4677 70.8919 35.086 70.553 34.5817C70.2276 34.0774 70.0649 33.464 70.0649 32.7415C70.0649 32.0463 70.2208 31.4534 70.5326 30.9627C70.858 30.472 71.319 30.0971 71.9156 29.8381C72.5257 29.5791 73.2578 29.4496 74.112 29.4496H77.4677V30.3288H74.0103C73.0884 30.3288 72.3766 30.5538 71.8749 31.0036C71.3868 31.4398 71.1428 32.0191 71.1428 32.7415C71.1428 33.5049 71.4071 34.1114 71.9359 34.5613C72.4647 34.9974 73.1561 35.2155 74.0103 35.2155C74.5391 35.2155 75.0543 35.1133 75.556 34.9088C76.0576 34.7044 76.4779 34.3636 76.8169 33.8865C77.1558 33.3958 77.3389 32.7415 77.366 31.9237L77.7727 32.3939C77.732 33.2254 77.5287 33.9206 77.1626 34.4795C76.8101 35.0247 76.3491 35.4336 75.7797 35.7063C75.2102 35.9789 74.5662 36.1152 73.8476 36.1152Z" fill="#FFF3DC"/>
<path d="M86.7521 36.1765C85.9522 36.1765 85.2268 36.0266 84.576 35.7267C83.9388 35.4132 83.3965 34.9974 82.949 34.4795C82.5016 33.9479 82.1559 33.3481 81.9118 32.6802C81.6814 32.0123 81.5661 31.3103 81.5661 30.5742V30.3697C81.5661 29.6609 81.6814 28.9794 81.9118 28.3251C82.1423 27.6572 82.4745 27.0574 82.9084 26.5258C83.3558 25.9806 83.8981 25.5512 84.5354 25.2377C85.1726 24.9242 85.9047 24.7674 86.7318 24.7674C87.6944 24.7674 88.5283 24.9855 89.2333 25.4217C89.9519 25.8579 90.5077 26.4577 90.9009 27.221C91.3077 27.9707 91.5246 28.8294 91.5517 29.7972L91.0026 28.5909V20.903H92.0805V35.8289H91.2263V31.0649H91.6331C91.606 32.0872 91.3823 32.9869 90.9619 33.7638C90.5416 34.5272 89.9654 35.1201 89.2333 35.5427C88.5147 35.9652 87.6876 36.1765 86.7521 36.1765ZM86.8538 35.1951C87.6809 35.1951 88.4062 35.0111 89.0299 34.643C89.6671 34.275 90.162 33.7775 90.5145 33.1505C90.8806 32.5098 91.0636 31.7805 91.0636 30.9627V29.8995C91.0636 29.1225 90.8806 28.4205 90.5145 27.7935C90.162 27.1665 89.6671 26.6689 89.0299 26.3009C88.4062 25.9329 87.6809 25.7488 86.8538 25.7488C85.959 25.7488 85.1997 25.9669 84.576 26.4031C83.9524 26.8393 83.471 27.4186 83.1321 28.1411C82.8067 28.8499 82.644 29.6269 82.644 30.472C82.644 31.3444 82.8135 32.1418 83.1524 32.8642C83.4914 33.573 83.9727 34.1387 84.5964 34.5613C85.2336 34.9838 85.9861 35.1951 86.8538 35.1951Z" fill="#FFF3DC"/>
<path d="M100.555 36.1765C99.7554 36.1765 99.03 36.0266 98.3792 35.7267C97.742 35.4132 97.1996 34.9974 96.7522 34.4795C96.3048 33.9479 95.959 33.3481 95.715 32.6802C95.4845 32.0123 95.3693 31.3103 95.3693 30.5742V30.3697C95.3693 29.6609 95.4845 28.9794 95.715 28.3251C95.9455 27.6572 96.2777 27.0574 96.7115 26.5258C97.1589 25.9806 97.7013 25.5512 98.3385 25.2377C98.9758 24.9242 99.7079 24.7674 100.535 24.7674C101.498 24.7674 102.331 24.9855 103.036 25.4217C103.755 25.8579 104.311 26.4577 104.704 27.221C105.111 27.9707 105.328 28.8294 105.355 29.7972L104.806 28.5909V20.903H105.884V35.8289H105.03V31.0649H105.436C105.409 32.0872 105.185 32.9869 104.765 33.7638C104.345 34.5272 103.769 35.1201 103.036 35.5427C102.318 35.9652 101.491 36.1765 100.555 36.1765ZM100.657 35.1951C101.484 35.1951 102.209 35.0111 102.833 34.643C103.47 34.275 103.965 33.7775 104.318 33.1505C104.684 32.5098 104.867 31.7805 104.867 30.9627V29.8995C104.867 29.1225 104.684 28.4205 104.318 27.7935C103.965 27.1665 103.47 26.6689 102.833 26.3009C102.209 25.9329 101.484 25.7488 100.657 25.7488C99.7621 25.7488 99.0029 25.9669 98.3792 26.4031C97.7555 26.8393 97.2742 27.4186 96.9352 28.1411C96.6099 28.8499 96.4472 29.6269 96.4472 30.472C96.4472 31.3444 96.6166 32.1418 96.9556 32.8642C97.2945 33.573 97.7759 34.1387 98.3995 34.5613C99.0368 34.9838 99.7892 35.1951 100.657 35.1951Z" fill="#FFF3DC"/>
<path d="M108.867 40V38.9981H110.088C110.562 38.9981 110.976 38.9368 111.328 38.8141C111.681 38.7051 111.986 38.5006 112.243 38.2007C112.515 37.9008 112.738 37.4715 112.914 36.9126L116.718 25.0946H117.795L113.83 37.2602C113.613 37.9281 113.321 38.4597 112.955 38.855C112.603 39.2639 112.176 39.557 111.674 39.7342C111.186 39.9114 110.63 40 110.006 40H108.867ZM112.569 35.5631V34.6021H114.074V35.5631H112.569ZM112.365 35.5631L108.481 25.0946H109.579L113.423 35.5631H112.365Z" fill="#FFF3DC"/>
</g>
</svg>
