<svg width="185" height="42" viewBox="0 0 185 42" fill="none" xmlns="http://www.w3.org/2000/svg">
<path d="M9.82685 8.06907C27.1288 9.49887 41.4235 21.6274 46.1837 37.877C46.3506 36.6442 46.4369 35.3854 46.4369 34.1064C46.4369 18.8475 34.1617 6.47777 19.0196 6.47777C15.7951 6.47777 12.7005 7.03872 9.82685 8.06907Z" fill="#064D49"/>
<path d="M0 21.2797C16.881 17.1986 34.2172 24.2277 43.7706 38.1697C43.5475 36.9459 43.2398 35.7229 42.8438 34.5077C38.1197 20.0104 22.6276 12.1172 8.24128 16.8777C5.17767 17.8915 2.41125 19.3973 0 21.2797Z" fill="#064D49"/>
<path d="M61.1611 18.1118C59.8188 18.1118 58.6664 17.88 57.7038 17.4166C56.7411 16.9395 55.9547 16.3193 55.3446 15.556C54.7345 14.779 54.2803 13.9475 53.982 13.0615C53.6973 12.1619 53.5549 11.2895 53.5549 10.4444V9.99455C53.5549 9.06764 53.7041 8.15437 54.0024 7.25473C54.3006 6.34146 54.7548 5.51678 55.365 4.78071C55.9886 4.04464 56.7682 3.45851 57.7038 3.02232C58.6528 2.5725 59.7714 2.34759 61.0594 2.34759C62.4017 2.34759 63.588 2.59976 64.6184 3.10411C65.6489 3.60845 66.4691 4.31044 67.0793 5.21009C67.7029 6.0961 68.069 7.13887 68.1775 8.33839H64.8218C64.7269 7.73863 64.51 7.22747 64.171 6.80491C63.8321 6.38235 63.3914 6.05521 62.8491 5.82348C62.3203 5.59175 61.7238 5.47589 61.0594 5.47589C60.3951 5.47589 59.8053 5.59175 59.2901 5.82348C58.7749 6.05521 58.341 6.38235 57.9885 6.80491C57.6495 7.22747 57.3851 7.73181 57.1953 8.31794C57.0191 8.89044 56.9309 9.5311 56.9309 10.2399C56.9309 10.9351 57.0191 11.5757 57.1953 12.1619C57.3851 12.7344 57.6563 13.2387 58.0088 13.6749C58.3749 14.0975 58.8223 14.4246 59.3511 14.6563C59.8799 14.8744 60.4832 14.9835 61.1611 14.9835C62.1915 14.9835 63.0593 14.7313 63.7643 14.227C64.4829 13.7226 64.9167 13.0274 65.0659 12.1414H68.4012C68.2792 13.2319 67.9131 14.2338 67.303 15.147C66.7064 16.0467 65.8861 16.7691 64.8422 17.3144C63.8117 17.846 62.5847 18.1118 61.1611 18.1118Z" fill="#064D49"/>
<path d="M70.4309 17.7233V6.51866H73.0138V11.3236H72.9528C72.9528 9.74238 73.285 8.52241 73.9493 7.66366C74.6272 6.80491 75.6034 6.37553 76.8779 6.37553H77.305V9.19714H76.4915C75.5966 9.19714 74.9052 9.4425 74.4171 9.93321C73.929 10.4103 73.6849 11.1055 73.6849 12.0187V17.7233H70.4309Z" fill="#064D49"/>
<path d="M84.036 18.1118C83.0869 18.1118 82.2463 17.9482 81.5142 17.6211C80.7956 17.2939 80.1922 16.8577 79.7041 16.3125C79.2296 15.7536 78.8635 15.1334 78.6059 14.4519C78.3619 13.7567 78.2398 13.0479 78.2398 12.3254V11.9165C78.2398 11.1668 78.3619 10.4512 78.6059 9.76964C78.8635 9.07446 79.2296 8.45425 79.7041 7.90901C80.1787 7.36378 80.7684 6.9344 81.4735 6.62089C82.1921 6.29375 83.0056 6.13018 83.914 6.13018C85.1071 6.13018 86.1104 6.40279 86.9239 6.94803C87.7509 7.47964 88.3814 8.18163 88.8152 9.05401C89.2491 9.91276 89.466 10.8533 89.466 11.8756V12.9797H79.6024V11.1191H87.4933L86.4358 11.9779C86.4358 11.3099 86.3409 10.7374 86.1511 10.2604C85.9612 9.78327 85.6765 9.42205 85.2969 9.17669C84.9308 8.9177 84.4698 8.78821 83.914 8.78821C83.3445 8.78821 82.8632 8.9177 82.47 9.17669C82.0768 9.43568 81.7785 9.81735 81.5752 10.3217C81.3718 10.8124 81.2701 11.419 81.2701 12.1414C81.2701 12.8093 81.365 13.3955 81.5548 13.8998C81.7446 14.3905 82.0429 14.7722 82.4497 15.0448C82.8564 15.3174 83.3852 15.4537 84.036 15.4537C84.6325 15.4537 85.1206 15.3379 85.5003 15.1062C85.8799 14.8744 86.1375 14.5882 86.2731 14.2474H89.2627C89.1 14.9971 88.7814 15.665 88.3068 16.2512C87.8323 16.8373 87.2357 17.2939 86.5171 17.6211C85.7985 17.9482 84.9715 18.1118 84.036 18.1118Z" fill="#064D49"/>
<path d="M96.2185 18.0913C95.4321 18.0913 94.7136 17.9482 94.0628 17.662C93.4255 17.3757 92.8696 16.9804 92.3951 16.4761C91.9206 15.9581 91.5545 15.3515 91.2969 14.6563C91.0528 13.9612 90.9308 13.2115 90.9308 12.4072V11.937C90.9308 11.1327 91.0461 10.383 91.2765 9.68785C91.5206 8.99267 91.8663 8.3861 92.3137 7.86812C92.7747 7.33651 93.3238 6.92759 93.9611 6.64134C94.5983 6.34146 95.3101 6.19152 96.0965 6.19152C96.9913 6.19152 97.7641 6.38916 98.4149 6.78446C99.0657 7.16613 99.5742 7.73863 99.9402 8.50196C100.306 9.25166 100.51 10.1786 100.55 11.2827L99.6962 10.4853V2.79741H102.971V17.7233H100.388V13.082H100.835C100.794 14.1452 100.571 15.0516 100.164 15.8013C99.7708 16.551 99.2352 17.1235 98.5573 17.5188C97.8794 17.9005 97.0998 18.0913 96.2185 18.0913ZM97.032 15.3515C97.5337 15.3515 97.9879 15.2425 98.3946 15.0244C98.8149 14.7926 99.1471 14.4587 99.3911 14.0225C99.6487 13.5863 99.7775 13.0615 99.7775 12.4481V11.6916C99.7775 11.0918 99.6487 10.5875 99.3911 10.1786C99.1335 9.76964 98.7946 9.45613 98.3743 9.23803C97.954 9.01994 97.4998 8.91089 97.0117 8.91089C96.4693 8.91089 95.9812 9.05401 95.5474 9.34026C95.1271 9.61288 94.7949 9.99455 94.5508 10.4853C94.3068 10.9623 94.1848 11.5212 94.1848 12.1619C94.1848 12.8162 94.3068 13.3818 94.5508 13.8589C94.7949 14.336 95.1339 14.704 95.5677 14.963C96.0016 15.222 96.4897 15.3515 97.032 15.3515Z" fill="#064D49"/>
<path d="M106.451 17.7233V6.51866H109.705V17.7233H106.451ZM104.966 8.93133V6.51866H109.705V8.93133H104.966ZM107.712 5.41455C107.102 5.41455 106.647 5.2578 106.349 4.94428C106.064 4.61714 105.922 4.20821 105.922 3.7175C105.922 3.21315 106.064 2.80423 106.349 2.49071C106.647 2.16357 107.102 2 107.712 2C108.322 2 108.769 2.16357 109.054 2.49071C109.352 2.80423 109.501 3.21315 109.501 3.7175C109.501 4.20821 109.352 4.61714 109.054 4.94428C108.769 5.2578 108.322 5.41455 107.712 5.41455Z" fill="#064D49"/>
<path d="M117.778 17.8664C116.653 17.8664 115.745 17.7301 115.053 17.4575C114.362 17.1712 113.853 16.701 113.528 16.0467C113.216 15.3788 113.06 14.4791 113.06 13.3478V3.49259H116.09V13.4704C116.09 14.002 116.226 14.411 116.497 14.6972C116.782 14.9698 117.182 15.1062 117.697 15.1062H119.344V17.8664H117.778ZM111.372 8.91089V6.51866H119.344V8.91089H111.372Z" fill="#064D49"/>
<path d="M55.8734 37.8903V36.868H60.2663C61.3645 36.868 62.3135 36.6908 63.1135 36.3363C63.927 35.9819 64.5981 35.498 65.1269 34.8846C65.6556 34.2713 66.0488 33.5761 66.3064 32.7991C66.5776 32.0085 66.7132 31.1907 66.7132 30.3455C66.7132 29.4595 66.5776 28.628 66.3064 27.8511C66.0488 27.0741 65.6489 26.3858 65.1065 25.786C64.5642 25.1862 63.8931 24.716 63.0931 24.3752C62.2932 24.0344 61.3509 23.864 60.2663 23.864H55.8734V22.8417H60.1442C61.4594 22.8417 62.5983 23.053 63.5609 23.4755C64.5235 23.8845 65.3167 24.4365 65.9404 25.1317C66.5776 25.8269 67.0521 26.6107 67.364 27.483C67.6758 28.3554 67.8317 29.2551 67.8317 30.182V30.5091C67.8317 31.3951 67.6826 32.2811 67.3843 33.1672C67.086 34.0395 66.6183 34.8301 65.981 35.5389C65.3574 36.2477 64.5642 36.8202 63.6016 37.2564C62.6389 37.679 61.4865 37.8903 60.1442 37.8903H55.8734ZM55.1616 37.8903V22.8417H56.2598V37.8903H55.1616Z" fill="#064D49"/>
<path d="M77.5694 37.8289V34.6188H77.366V30.6727C77.366 29.8139 77.1423 29.1528 76.6948 28.6894C76.2474 28.2123 75.5085 27.9738 74.4781 27.9738C74.112 27.9738 73.7391 27.9874 73.3595 28.0147C72.9799 28.0283 72.6206 28.0487 72.2816 28.076C71.9427 28.0896 71.6376 28.1169 71.3665 28.1578V27.1764C71.6376 27.1355 71.9224 27.1014 72.2206 27.0741C72.5325 27.0469 72.8443 27.0264 73.1562 27.0128C73.468 26.9991 73.7663 26.9923 74.051 26.9923C75.1221 26.9923 75.9763 27.1355 76.6135 27.4217C77.2507 27.6943 77.7117 28.1169 77.9964 28.6894C78.2812 29.2483 78.4235 29.9639 78.4235 30.8363V37.8289H77.5694ZM73.8476 38.1152C73.129 38.1152 72.485 37.9857 71.9156 37.7267C71.3461 37.4677 70.8919 37.086 70.553 36.5817C70.2276 36.0774 70.0649 35.464 70.0649 34.7415C70.0649 34.0463 70.2208 33.4534 70.5326 32.9627C70.858 32.472 71.319 32.0971 71.9156 31.8381C72.5257 31.5791 73.2578 31.4496 74.112 31.4496H77.4677V32.3288H74.0103C73.0884 32.3288 72.3766 32.5538 71.8749 33.0036C71.3868 33.4398 71.1428 34.0191 71.1428 34.7415C71.1428 35.5049 71.4071 36.1114 71.9359 36.5613C72.4647 36.9974 73.1561 37.2155 74.0103 37.2155C74.5391 37.2155 75.0543 37.1133 75.556 36.9088C76.0576 36.7044 76.4779 36.3636 76.8169 35.8865C77.1558 35.3958 77.3389 34.7415 77.366 33.9237L77.7727 34.3939C77.732 35.2254 77.5287 35.9206 77.1626 36.4795C76.8101 37.0247 76.3491 37.4336 75.7797 37.7063C75.2102 37.9789 74.5662 38.1152 73.8476 38.1152Z" fill="#064D49"/>
<path d="M86.7521 38.1765C85.9522 38.1765 85.2268 38.0266 84.576 37.7267C83.9388 37.4132 83.3965 36.9974 82.9491 36.4795C82.5016 35.9479 82.1559 35.3481 81.9118 34.6802C81.6814 34.0123 81.5661 33.3103 81.5661 32.5742V32.3697C81.5661 31.6609 81.6814 30.9794 81.9118 30.3251C82.1423 29.6572 82.4745 29.0574 82.9084 28.5258C83.3558 27.9806 83.8981 27.5512 84.5354 27.2377C85.1726 26.9242 85.9047 26.7674 86.7318 26.7674C87.6944 26.7674 88.5283 26.9855 89.2333 27.4217C89.9519 27.8579 90.5078 28.4577 90.9009 29.221C91.3077 29.9707 91.5246 30.8294 91.5517 31.7972L91.0026 30.5909V22.903H92.0805V37.8289H91.2263V33.0649H91.6331C91.606 34.0872 91.3822 34.9869 90.9619 35.7638C90.5416 36.5272 89.9654 37.1201 89.2333 37.5427C88.5147 37.9652 87.6876 38.1765 86.7521 38.1765ZM86.8538 37.1951C87.6809 37.1951 88.4062 37.0111 89.0299 36.643C89.6671 36.275 90.162 35.7775 90.5145 35.1505C90.8806 34.5098 91.0636 33.7805 91.0636 32.9627V31.8995C91.0636 31.1225 90.8806 30.4205 90.5145 29.7935C90.162 29.1665 89.6671 28.6689 89.0299 28.3009C88.4062 27.9329 87.6809 27.7488 86.8538 27.7488C85.959 27.7488 85.1997 27.9669 84.576 28.4031C83.9523 28.8393 83.471 29.4186 83.1321 30.1411C82.8067 30.8499 82.644 31.6269 82.644 32.472C82.644 33.3444 82.8135 34.1418 83.1524 34.8642C83.4914 35.573 83.9727 36.1387 84.5964 36.5613C85.2336 36.9838 85.9861 37.1951 86.8538 37.1951Z" fill="#064D49"/>
<path d="M100.555 38.1765C99.7554 38.1765 99.03 38.0266 98.3792 37.7267C97.742 37.4132 97.1996 36.9974 96.7522 36.4795C96.3048 35.9479 95.959 35.3481 95.715 34.6802C95.4845 34.0123 95.3693 33.3103 95.3693 32.5742V32.3697C95.3693 31.6609 95.4845 30.9794 95.715 30.3251C95.9455 29.6572 96.2777 29.0574 96.7115 28.5258C97.1589 27.9806 97.7013 27.5512 98.3385 27.2377C98.9758 26.9242 99.7079 26.7674 100.535 26.7674C101.498 26.7674 102.331 26.9855 103.036 27.4217C103.755 27.8579 104.311 28.4577 104.704 29.221C105.111 29.9707 105.328 30.8294 105.355 31.7972L104.806 30.5909V22.903H105.884V37.8289H105.03V33.0649H105.436C105.409 34.0872 105.185 34.9869 104.765 35.7638C104.345 36.5272 103.769 37.1201 103.036 37.5427C102.318 37.9652 101.491 38.1765 100.555 38.1765ZM100.657 37.1951C101.484 37.1951 102.209 37.0111 102.833 36.643C103.47 36.275 103.965 35.7775 104.318 35.1505C104.684 34.5098 104.867 33.7805 104.867 32.9627V31.8995C104.867 31.1225 104.684 30.4205 104.318 29.7935C103.965 29.1665 103.47 28.6689 102.833 28.3009C102.209 27.9329 101.484 27.7488 100.657 27.7488C99.7621 27.7488 99.0029 27.9669 98.3792 28.4031C97.7555 28.8393 97.2742 29.4186 96.9352 30.1411C96.6099 30.8499 96.4472 31.6269 96.4472 32.472C96.4472 33.3444 96.6166 34.1418 96.9556 34.8642C97.2945 35.573 97.7759 36.1387 98.3995 36.5613C99.0368 36.9838 99.7892 37.1951 100.657 37.1951Z" fill="#064D49"/>
<path d="M108.867 42V40.9981H110.088C110.562 40.9981 110.976 40.9368 111.328 40.8141C111.681 40.7051 111.986 40.5006 112.243 40.2007C112.515 39.9008 112.738 39.4715 112.914 38.9126L116.718 27.0946H117.795L113.83 39.2602C113.613 39.9281 113.321 40.4597 112.955 40.855C112.603 41.2639 112.176 41.557 111.674 41.7342C111.186 41.9114 110.63 42 110.006 42H108.867ZM112.569 37.5631V36.6021H114.074V37.5631H112.569ZM112.365 37.5631L108.481 27.0946H109.579L113.423 37.5631H112.365Z" fill="#064D49"/>
<path d="M155.054 10.978H156.77C157.186 10.978 157.53 10.898 157.802 10.738C158.074 10.57 158.278 10.346 158.414 10.066C158.558 9.786 158.63 9.474 158.63 9.13C158.63 8.778 158.558 8.462 158.414 8.182C158.278 7.902 158.074 7.682 157.802 7.522C157.53 7.362 157.186 7.282 156.77 7.282H155.054V10.978Z" fill="#064D49"/>
<path d="M141.698 7.354L143.181 11.386H139.827L141.262 7.354H141.698Z" fill="#064D49"/>
<path d="M176.099 11.386L174.616 7.354H174.18L172.745 11.386H176.099Z" fill="#064D49"/>
<path fill-rule="evenodd" clip-rule="evenodd" d="M134.344 0.25C132.687 0.25 131.344 1.59315 131.344 3.25V18.25C131.344 19.9069 132.687 21.25 134.344 21.25H181.594C183.251 21.25 184.594 19.9069 184.594 18.25V3.25C184.594 1.59315 183.251 0.25 181.594 0.25H134.344ZM155.054 12.01V15.058H153.878V6.25H156.554C157.274 6.25 157.874 6.366 158.354 6.598C158.842 6.822 159.21 7.142 159.458 7.558C159.706 7.974 159.83 8.466 159.83 9.034V9.226C159.83 9.786 159.706 10.278 159.458 10.702C159.21 11.118 158.842 11.442 158.354 11.674C157.874 11.898 157.274 12.01 156.554 12.01H155.054ZM137.344 15.058L140.5 6.298H142.492L145.744 15.058H144.532L143.57 12.442H139.451L138.52 15.058H137.344ZM147.351 15.058V6.298H148.527V14.002H152.295V15.058H147.351ZM167.482 15.058V11.23H162.73V15.058H161.554V6.298H162.73V10.174H167.482V6.298H168.658V15.058H167.482ZM173.418 6.298L170.262 15.058H171.438L172.369 12.442H176.488L177.45 15.058H178.662L175.41 6.298H173.418Z" fill="#064D49"/>
</svg>
