<svg width="20" height="31" viewBox="0 0 20 31" fill="none" xmlns="http://www.w3.org/2000/svg">
<path id="Subtract" fill-rule="evenodd" clip-rule="evenodd" d="M10.9578 2.79278C17.9031 9.73801 17.9031 20.9965 10.9578 27.9418C10.6634 28.2467 10.5004 28.6551 10.5041 29.0789C10.5078 29.5028 10.6778 29.9083 10.9775 30.2081C11.2773 30.5078 11.6828 30.6778 12.1067 30.6815C12.5305 30.6852 12.9389 30.5222 13.2438 30.2277C21.4517 22.0215 21.4517 8.71304 13.2438 0.506798C12.9389 0.212308 12.5305 0.0493559 12.1067 0.0530393C11.6828 0.0567228 11.2773 0.226747 10.9775 0.526491C10.6778 0.826236 10.5078 1.23172 10.5041 1.6556C10.5004 2.07949 10.6634 2.48787 10.9578 2.79278ZM8.83934 19.6983C8.27055 21.0713 7.43687 22.3189 6.38589 23.3698C6.0914 23.6747 5.92845 24.0831 5.93213 24.507C5.93581 24.9309 6.10584 25.3364 6.40558 25.6361C6.70533 25.9358 7.11081 26.1059 7.5347 26.1095C7.95858 26.1132 8.36696 25.9503 8.67187 25.6558C10.023 24.3047 11.0948 22.7007 11.826 20.9354C12.5572 19.1701 12.9335 17.278 12.9335 15.3673C12.9335 13.4565 12.5572 11.5645 11.826 9.79916C11.0948 8.03385 10.023 6.42986 8.67187 5.07875C8.36696 4.78426 7.95858 4.62131 7.5347 4.625C7.11081 4.62868 6.70533 4.7987 6.40558 5.09845C6.10584 5.39819 5.93581 5.80367 5.93213 6.22756C5.92845 6.65145 6.0914 7.05982 6.38589 7.36473C7.43687 8.4156 8.27055 9.6632 8.83934 11.0363C9.40814 12.4094 9.70089 13.881 9.70089 15.3673C9.70089 16.8535 9.40814 18.3252 8.83934 19.6983ZM3.23072 15.3657C3.23072 16.6517 2.71994 17.8851 1.8107 18.7946C1.50735 19.098 1.33692 19.5094 1.33692 19.9384C1.33692 20.3674 1.50735 20.7789 1.8107 21.0822C2.11405 21.3856 2.52549 21.556 2.9545 21.556C3.3835 21.556 3.79494 21.3856 4.09829 21.0822C4.84913 20.3316 5.44474 19.4404 5.8511 18.4595C6.25746 17.4787 6.46661 16.4274 6.46661 15.3657C6.46661 14.304 6.25746 13.2526 5.8511 12.2718C5.44474 11.2909 4.84913 10.3997 4.09829 9.64909C3.79494 9.34574 3.3835 9.17532 2.9545 9.17532C2.52549 9.17532 2.11405 9.34574 1.8107 9.64909C1.50735 9.95245 1.33693 10.3639 1.33693 10.7929C1.33693 11.2219 1.50735 11.6333 1.8107 11.9367C2.71994 12.8462 3.23072 14.0796 3.23072 15.3657ZM1.23832e-06 15.3587L1.23686e-06 15.392C1.64958e-05 15.3892 2.41253e-05 15.3863 2.41254e-05 15.3834L2.41261e-05 15.3673C2.41262e-05 15.3644 1.6497e-05 15.3615 1.23832e-06 15.3587Z" fill="white"/>
</svg>
